<?xml version="1.0" encoding="iso-8859-1"?>
<!-- Generator: Adobe Illustrator 19.0.0, SVG Export Plug-In . SVG Version: 6.00 Build 0)  -->
<svg version="1.1" id="Layer_1" xmlns="http://www.w3.org/2000/svg" xmlns:xlink="http://www.w3.org/1999/xlink" x="0px" y="0px"
	 viewBox="0 0 512.001 512.001" style="enable-background:new 0 0 512.001 512.001;" xml:space="preserve">
<path style="fill:#63AAD0;" d="M500.031,336.357c0-36.934-29.94-66.874-66.874-66.874c-9.341,0-18.231,1.921-26.307,5.381
	c8.141-12.609,12.886-27.618,12.886-43.744c0-44.611-36.164-80.776-80.776-80.776c-20.178,0-38.614,7.416-52.771,19.649
	c-11.316-35.502-44.552-61.223-83.806-61.223c-46.506,0-84.557,36.101-87.717,81.804c-57.045,1.933-102.699,48.778-102.699,106.294
	c0,58.742,47.621,106.362,106.362,106.362h316.684v-0.047C471.086,402.198,500.031,372.668,500.031,336.357z"/>
<rect x="190.173" y="274.544" style="fill:#F3C324;" width="119.674" height="83.772"/>
<path d="M435.014,415.198H118.33C53.082,415.198,0,362.115,0,296.868c0-30.897,11.837-60.131,33.33-82.318
	c19.035-19.648,43.822-31.911,70.66-35.146c8.266-47.076,49.631-82.601,98.396-82.601c38.239,0,72.32,21.413,89.117,54.654
	c14.271-8.509,30.66-13.082,47.459-13.082c51.139,0,92.744,41.605,92.744,92.744c0,9.069-1.318,18.008-3.881,26.575
	c1.769-0.118,3.547-0.177,5.335-0.177c43.473,0,78.841,35.368,78.841,78.841c0,20.677-7.949,40.215-22.381,55.015
	c-14.133,14.492-32.963,22.895-53.13,23.735C436.005,415.167,435.513,415.198,435.014,415.198z M202.385,120.738
	c-39.752,0-73.038,31.039-75.779,70.663c-0.424,6.119-5.404,10.927-11.534,11.134c-51.105,1.73-91.138,43.166-91.138,94.333
	c0,52.05,42.345,94.395,94.395,94.395h315.625c0.242-0.022,0.486-0.036,0.731-0.042c29.932-0.817,53.378-24.916,53.378-54.863
	c0-30.275-24.631-54.906-54.906-54.906c-7.492,0-14.758,1.485-21.595,4.414c-4.837,2.073-10.462,0.74-13.857-3.281
	c-3.395-4.021-3.764-9.789-0.908-14.211c7.178-11.118,10.972-23.999,10.972-37.253c0-37.941-30.867-68.809-68.809-68.809
	c-16.493,0-32.456,5.944-44.947,16.738c-3.042,2.629-7.201,3.554-11.072,2.464c-3.87-1.091-6.933-4.053-8.155-7.884
	C264.705,141.992,235.609,120.738,202.385,120.738z"/>
<path d="M309.853,262.583v-9.574c0-32.994-26.843-59.837-59.837-59.837s-59.837,26.843-59.837,59.837v9.574
	c-6.61,0-11.967,5.358-11.967,11.967v83.772c0,6.61,5.358,11.967,11.967,11.967h119.674c6.61,0,11.967-5.358,11.967-11.967V274.55
	C321.821,267.94,316.463,262.583,309.853,262.583z M214.114,253.009c0-19.796,16.106-35.902,35.902-35.902
	s35.902,16.106,35.902,35.902v9.574h-71.804V253.009z M297.886,346.354h-95.739v-59.837h95.739V346.354z"/>
<circle cx="250.01" cy="316.442" r="11.967"/>
<g>
</g>
<g>
</g>
<g>
</g>
<g>
</g>
<g>
</g>
<g>
</g>
<g>
</g>
<g>
</g>
<g>
</g>
<g>
</g>
<g>
</g>
<g>
</g>
<g>
</g>
<g>
</g>
<g>
</g>
</svg>
